<svg id="Слой_1" data-name="Слой 1" xmlns="http://www.w3.org/2000/svg" viewBox="0 0 834.2 517.49"><defs><style>.cls-1{fill:#4c7aae;}.cls-2{fill:#439fde;}.cls-3{fill:#5974b6;}.cls-4{fill:#4c74b3;}.cls-5{fill:#4c7aad;}.cls-6{fill:#799ed5;}</style></defs><title>golden-ratio</title><path class="cls-1" d="M520,447.07c-1.9,2.44-1.45,5.33-1.46,8.1q-0.11,42.1-.15,84.2c0,9.55,0,9.64-9.69,9.64q-236.48.1-473,.17c-8,0-15.91.06-23.86,0-9-.12-9.11-0.29-9-9.73C3.08,500.67,8.55,462.61,17.6,425A500,500,0,0,1,77.24,281.23a512.31,512.31,0,0,1,115-132.07,517.78,517.78,0,0,1,149.56-85.4,506.8,506.8,0,0,1,166.71-31c11.87-.2,23.8-1.88,35.57,1.17-1.37,3.75-4.74,3.28-7.67,3.52-12.86,1.09-14.7,2.94-14.71,16q-0.08,89.72,0,179.44c0,39.49-.07,79,0.05,118.46-0.6,16.68,1.12,33.41-1.19,50-0.53,3.81,1.66,7.07,1.94,10.69,0.15,9,2.09,11.3,10.91,11.45,15.81,0.27,31.62.05,47.43,0.1,4,0,7.92,0,11.65,1.64a4.24,4.24,0,0,1,2,1.54,3.26,3.26,0,0,1,0,2.46c-2.8,3.44-6.8,2.62-10.4,2.66-15.65.19-31.29,0-46.94,0.09-11.49,0-11.79.29-14.43,11.21C522.24,444.88,521.69,446.34,520,447.07Z" transform="translate(-2.82 -32.15)"/><path class="cls-2" d="M520.05,351.33c-1.84-2.41-1.73-5.21-1.73-8q0-149.38,0-298.77c0-10.79.05-10.8,11.05-10.59,4.89,0.1,9.79,0,14.69,0,37,2.1,72.07,12,105.86,26.95,17.56,7.77,33.84,17.75,50,28,4.93,1.76,9.66,3.8,11.95,9a290.45,290.45,0,0,1,40.62,37c42.93,47,70,101.93,80.48,164.87,2.79,16.83,4.63,33.76,3.78,50.87-1.41,2.89-4,3.7-6.92,3.93-3.73.3-7.47,0.24-11.21,0.24q-89.7,0-179.4,0c-9.06-.08-18.13.49-27.16-1.17-2.36-.43-5.05.31-7.5,1.07-3.52,1.26-7.12-1.31-10.64.26-5.38-.16-10.77.31-16.15-0.16-4.75-1.27-9.45-.68-14.31-0.35a359.41,359.41,0,0,1-37,.15C524,354.48,521.38,354.09,520.05,351.33Z" transform="translate(-2.82 -32.15)"/><path class="cls-3" d="M638.61,351.34q93.51,0,187,0c3.72,0,7.44-.46,11.15-0.7,1.39,24.67-3.6,48.29-12.26,71.17-15.26,40.32-41.08,72.57-77.14,96-29.25,19-61.56,30-96.74,31.15-8.31.28-16.74,1.94-25-1a3.64,3.64,0,0,1,2.6-3c7.35-2,8.55-7.61,8.54-14.15,0-28.4,0-56.8,0-85.21,0-10.95-2.14-12.94-12.93-13.67-3.53-.24-7.73.79-9.65-3.78a4.43,4.43,0,0,1,2-4.31,5.83,5.83,0,0,1,6-.22c5,2.45,9.61.8,12.66-2.75,3.21-3.74,4.71-8.7,1.07-13.53a4.16,4.16,0,0,1-.53-2,30.88,30.88,0,0,1,.49-4.38c1.47-4.7-1-9.45.13-14.18,1.83-3.68,1.77-7.29,1.38-11.47C636.64,367.36,635.35,359.16,638.61,351.34Z" transform="translate(-2.82 -32.15)"/><path class="cls-2" d="M614.66,427c5.73,3,11.91,1.52,17.84,1.39s7.57,2.15,7.53,7.77c-0.2,33.82-.1,67.65-0.15,101.48,0,10.23-.19,10.32-10.69,10.13-1.16,0-2.32.12-3.49,0.19-31.51-3-57.06-17.5-77.7-41-15.11-17.19-24.27-37.33-28-59.9-0.21-2.54-.26-5.11-0.68-7.62-1.77-10.48-1.34-11.08,9.55-11.13,21.67-.1,43.35-0.12,65-0.17a29.93,29.93,0,0,1,15.36-3.37C611.39,424.67,613.49,424.71,614.66,427Z" transform="translate(-2.82 -32.15)"/><path class="cls-3" d="M577.65,351.47L594,351.59c3.26,1.57,4.56,4,4.36,7.76-0.64,12.2-1.54,24.42-.3,36.64,0.6,4.83-.71,9.58-0.68,14.38-0.65,2.38-.17,4.77,0,7.16-2.09,2.81.55,7.7-4.09,9.41q-30.65.1-61.31,0.2c-14,0-14.15-.19-13.6-13.93a10.25,10.25,0,0,0,1-4c2.21-26.26,19.26-41.38,40.28-53.33C565.11,352.77,571.9,354,577.65,351.47Z" transform="translate(-2.82 -32.15)"/><path class="cls-4" d="M594,417.44c-1.11-2-.28-3.78.48-5.59,5.67-3.34,11.17-2.61,16.58.66,2.16,5,2.66,9.91-1.35,14.36-5.15,2.15-10.49,1.92-15.87,1.27q-0.11-.52-0.2-1C597.61,424,596,420.74,594,417.44Z" transform="translate(-2.82 -32.15)"/><path class="cls-5" d="M595.94,396.5c-2.3-3.84-1.76-8.11-1.94-12.29-0.47-10.87,1.21-21.75,0-32.62l10.5-.08c6.2,2.42,13.19,1.93,18.93,6.43,10.34,8.1,16.47,17.89,15.51,31.39,0.52,3.75,1.78,7.47.37,11.28-9.6.63-19.2,1-28.79-.17C605.37,400.13,599.59,402.24,595.94,396.5Z" transform="translate(-2.82 -32.15)"/><path class="cls-6" d="M609.57,398.22c8.26-1.16,16.56-.31,24.84-0.51,2.2-.05,4.16.38,4.86,2.89l-1,5.65c1,12.25-6.32,19.58-19.5,19.56l-4.1,1.18-4.91-.11-0.33-14.46C605,407.05,605.05,403,609.57,398.22Z" transform="translate(-2.82 -32.15)"/></svg>