<svg id="Слой_1" data-name="Слой 1" xmlns="http://www.w3.org/2000/svg" viewBox="0 0 729.17 500.82"><title>golden-ratio2</title><path d="M792.51,517.76v-3.65c-1.35-6-.52-12.17-0.69-18.26a433.73,433.73,0,0,0-9.35-71.76Q755.8,300.73,669.14,209,580.28,115.12,455,82.37A435.69,435.69,0,0,0,378.6,69.52c-12.21-1-24.45-1.94-36.73-1.32,0,0.48.06,1,.06,1.45q0,156.62,0,313.24c0,7.28-.07,14.56-0.11,21.85q0,3.76,0,7.51c0.42,40.71-24.29,81.1-65.8,98.22-8.33,3.43-17,5.3-25.78,7.19,1.21,0,2.43.1,3.64,0.1H792.51Z" transform="translate(-63.34 -67.99)" style="fill:#42ace2"/><path d="M63.34,358.81c1.69,3.93,1.35,8.2,2,12.31,10.64,70.36,61.48,126,130.53,142.74a132.33,132.33,0,0,0,39.68,3.8q0-59.08,0-118.16c0-3.63,0-7.26.07-10.89l0.13-1.8A39,39,0,0,1,244,362.15c6.53-8.67,15.58-13.22,25.9-15.62-1.58,0-3.16-.13-4.73-0.13H71.67c-2.55,0-5.1.07-7.65,0.1l-0.68.64v11.67Z" transform="translate(-63.34 -67.99)" style="fill:#39393b"/><path d="M792.51,495.89a1.83,1.83,0,0,1-.69,0c0.17,6.09-.66,12.22.69,18.26V495.89Z" transform="translate(-63.34 -67.99)" style="fill:#e9adae"/><path d="M63.34,347.14L64,346.5q0-7.72,0-15.45a1.62,1.62,0,0,1-.69,0v16Z" transform="translate(-63.34 -67.99)" style="fill:#ededad"/><path d="M636.46,568.81q-1.09-1.8-2.19,0h2.19Z" transform="translate(-63.34 -67.99)" style="fill:#dad9e2"/><path d="M64,331.05q0,7.72,0,15.45c2.55,0,5.1-.1,7.65-0.1H265.2c1.58,0,3.16.08,4.73,0.13l6.21,0C292,346,305.87,351.56,318,361.1c8.87,7,15.25,16.3,19.51,26.95,2.16,5.4,3.14,11.06,4.33,16.69,0-7.28.11-14.56,0.11-21.85q0-156.62,0-313.24c0-.48,0-1-0.06-1.45-9.73-.65-19.43.31-29.05,1.32A279.09,279.09,0,0,0,90.09,227.58a269.92,269.92,0,0,0-24.53,85.7C64.9,319.19,64.53,325.13,64,331.05Z" transform="translate(-63.34 -67.99)" style="fill:#e1e47f"/><path d="M235.56,388.6c0,3.63-.07,7.26-0.07,10.89q0,59.08,0,118.16h14.72c8.74-1.89,17.46-3.76,25.78-7.19,41.51-17.12,66.22-57.51,65.8-98.22-2.78,0-5.56-.11-8.34-0.12L261.25,412a23.23,23.23,0,0,1-16.17-5.36C239.27,402.07,236.38,395.87,235.56,388.6Z" transform="translate(-63.34 -67.99)" style="fill:#4b7288"/><path d="M261.25,412l72.22,0.09c2.78,0,5.56.08,8.34,0.12q0-3.75,0-7.51c-1.19-5.63-2.16-11.28-4.33-16.69-4.26-10.64-10.64-20-19.51-26.95-12.1-9.54-26-15.12-41.82-14.62q0,20.18-.06,40.36c-0.63,1.16-1.23,2.33-1.91,3.47Q267.73,401.18,261.25,412Z" transform="translate(-63.34 -67.99)" style="fill:#bcd47c"/><path d="M276.09,386.84q0-20.18.06-40.36l-6.21,0c-10.33,2.4-19.37,7-25.9,15.62a39,39,0,0,0-8.34,24.65l1.2-.24c0.71-.88,1.71-0.76,2.66-0.76h31.83c1,0,2-.14,2.65.78Z" transform="translate(-63.34 -67.99)" style="fill:#b45e6e"/><path d="M276.09,386.84l-2.05-.27c-12.38.27-24.76,0.3-37.14,0l-1.2.24-0.13,1.8c0.82,7.27,3.71,13.47,9.52,18.09A23.23,23.23,0,0,0,261.25,412q6.47-10.87,12.93-21.74C274.86,389.17,275.46,388,276.09,386.84Z" transform="translate(-63.34 -67.99)" style="fill:#dd7f88"/><path d="M236.89,386.56c12.38,0.32,24.76.29,37.14,0-0.69-.91-1.7-0.78-2.65-0.78H239.56C238.6,385.79,237.6,385.68,236.89,386.56Z" transform="translate(-63.34 -67.99)" style="fill:#ba5865"/></svg>