<svg id="Слой_1" data-name="Слой 1" xmlns="http://www.w3.org/2000/svg" viewBox="0 0 653.07 80.37"><defs><style>.cls-1{fill:#f8fbf6;}.cls-2{fill:#ebdf54;}</style></defs><title>infourok-logo</title><path class="cls-1" d="M728.54,352.33c-6.33,0-12.66-.13-19-0.07a6.19,6.19,0,0,1-5.44-2.62c-5-6.18-10.36-12.09-15.63-18.05-1.06-1.2-2.06-2.43-4.06-2.5-2.78-.1-4.27.28-4,3.7,0.34,5.14-.06,10.33.14,15.49,0.11,2.88-.44,4.31-3.76,4a84.62,84.62,0,0,0-11,0c-2.94.14-4.16-.79-4.14-4q0.18-25.75,0-51.49c0-2.58.79-3.78,3.42-3.47,0.33,0,.67,0,1,0,4.63,0.12,10.71-1.49,13.48.84,2.93,2.46.63,8.75,0.91,13.36a27.8,27.8,0,0,0,.05,3.49c0.27,1.44-1.22,3.7,1.24,4.15,2.19,0.4,4.45.55,6.26-1.77,4.68-6,9.79-11.7,14.39-17.78a4.87,4.87,0,0,1,4.42-2.35c6.33,0.06,12.65,0,19.46,0-2.06,4.76-6.06,7.59-8.86,11.29-4,5.28-8.6,10.1-12.94,15.12-0.92,1.06-2.31,1.82-.7,3.6,7.68,8.51,15.24,17.13,22.87,25.68,0.43,0.48,1.07,1.47,1.9.3v3Z" transform="translate(-75.47 -282.08)"/><path class="cls-1" d="M75.54,331.33a13.29,13.29,0,0,1,5.08-5.62c2.11-1.22,4.2-1.29,8.18-1.54,2.25-.14,1.75.07,6-0.05,0.31,0,2.76-.08,5.88,0,2.54,0.1,3.25.23,3.84,0.76,1.11,1,1,2.7,1,4.26,0,0-.28,7.09-0.14,13.94,0.08,4.25.5,4.26,0.12,6-1,4.39-4.38,7.09-6.12,8.47-0.32.25-.7,0.51-0.7,0.51s-1.48,1-2.95,1.87c-3.75,2.09-13,1.9-17.7,2.48a2.58,2.58,0,0,1-2.09-.43,2.89,2.89,0,0,1-.48-2.14C75.62,350.33,75.54,340.83,75.54,331.33Z" transform="translate(-75.47 -282.08)"/><path class="cls-1" d="M100.35,283.6c3.43,1.92,5.24,4.6,5.14,8.74-0.18,7.78-.15,15.57,0,23.35,0.06,2.69-.55,4-3.5,3.67a51.41,51.41,0,0,0-5.46,0c-7.38-.05-15.11,1.31-21-5v-32c2-.07,4-0.07,6-0.21C86.19,281.81,99.48,283.11,100.35,283.6Z" transform="translate(-75.47 -282.08)"/><path class="cls-2" d="M381.82,323c-0.24,3.13,0,6.38-.8,9.36-2.37,9-9.09,13.48-20.28,13.91-2.83.11-5.66,0-8.49,0s-6.37-.91-5.83,4.17c0.2,1.92-1.56,1.66-2.91,1.65-3.16,0-6.32,0-9.49,0-2.87,0-6.27,1-6-4.07,0.11-2-2-1.65-3.51-1.73-4.63-.27-9.24.37-13.89-0.51-12.89-2.44-17.36-6.56-17.84-22-0.46-15.05,3.49-21.55,15.06-24.13,4.63-1,9.53-.81,14.31-1.13,2.78-.19,6.35,1.14,6.22-3.92,0-1.52,1.68-1.26,2.8-1.26,3.83,0,7.66.08,11.48,0,2.41-.08,4.33,0,3.89,3.28-0.26,1.95,1.25,2.09,2.65,1.94,5-.52,9.91.67,14.88,0.81,10.14,0.27,17.15,7.44,17.43,17.64,0.05,2,0,4,0,6h0.29Zm-53.55-.43h0c0-2.48,0-5,0-7.45,0-1.22-.15-2.22-1.52-2.76-8.69-3.44-16.26,2.45-15.22,11.88,0.73,6.63,4.39,9.1,12.88,8.81,7.05-.25,2.6-5.65,3.83-8.5A5.38,5.38,0,0,0,328.28,322.57Zm18.25,0.09c0,2.33,0,4.66,0,7,0,0.93-.26,1.92.72,2.71,2.94,2.34,13.6-.49,15-4,3.84-9.75-.44-15.93-10.79-16.12-3.89-.07-5.59.91-5,5A38.56,38.56,0,0,1,346.53,322.67Z" transform="translate(-75.47 -282.08)"/><path class="cls-2" d="M164.58,331.53c2.54-.51,3.16-2,4-3.43,5.71-10.23,11.53-20.4,17.17-30.67,1.58-2.88,3.34-4.42,7-4.17a164.45,164.45,0,0,0,16.49,0c2.54-.08,3.45.57,3.43,3.3q-0.18,26,0,52c0,3-1.17,3.71-3.88,3.53a51,51,0,0,0-9.49,0c-3.43.42-3.77-1.11-3.73-3.92,0.13-10,.09-20,0-30,0-1.55.69-3.33-1.27-5-3.89,6.94-7.74,13.7-11.48,20.52q-3.92,7.13-7.58,14.4c-1.4,2.77-3.15,4.26-6.58,4.06-5.65-.33-11.33-0.21-17-0.06-3,.07-4.09-0.95-4.06-4q0.18-25.5,0-51c0-2.79.85-3.69,3.7-3.79,13.35-.49,13.35-0.58,13.35,12.82C164.58,314.51,164.58,322.91,164.58,331.53Z" transform="translate(-75.47 -282.08)"/><path class="cls-1" d="M654.52,323c0,3.16.09,6.33,0,9.49-0.28,8.11-3.43,14.44-11.68,17-14.08,4.28-28.26,4.48-42.27-.21-7.64-2.56-11-8.47-11-16.36,0-6,.21-12,0-18C588.9,301.4,595.56,296,607,293.74a77.35,77.35,0,0,1,32,.54c11.48,2.51,16.17,11.43,15.61,20.22C654.37,317.32,654.52,320.16,654.52,323Zm-46-.52c0,2.33,0,4.66,0,7,0.11,6.06,2.76,8.85,8.67,9,3.16,0.09,6.33.08,9.49,0,5.92-.17,8.53-2.58,8.76-8.37,0.18-4.49.07-9,0-13.49-0.07-7.81-2.53-10.25-10.43-10.38C609.27,306,608.49,306.74,608.49,322.47Z" transform="translate(-75.47 -282.08)"/><path class="cls-2" d="M451.55,322.79c0,3.17,0,6.33,0,9.5,0,9.6-4.45,15.57-13.62,18-11.43,3-23.08,2.71-34.53.72-10.75-1.87-15.42-7.47-16.62-19.67-0.76-7.72-.82-15.62.9-23.33,1.66-7.39,6.62-11.63,13.75-13.25,12.76-2.9,25.56-3,38.19.65,7.44,2.17,11.86,8.54,11.92,16.39C451.57,315.46,451.54,319.13,451.55,322.79Zm-46-.26c0,1.67,0,3.33,0,5,0.08,7.79,2.25,10.48,9.83,11.58a31.69,31.69,0,0,0,12.8-1c2.64-.71,4-2.8,4.38-5.44a68,68,0,0,0,.34-16.91c-0.94-8.37-2.13-9.33-10.55-9.64C407.27,305.6,405.5,307.33,405.55,322.54Z" transform="translate(-75.47 -282.08)"/><path class="cls-2" d="M284.86,322.83c0,8.33-.13,16.67.06,25,0.07,3.24-.91,4.31-4.24,4.35-14.08.19-14.08,0.3-14-14,0-9.72,0-9.72-9.79-9.72-3.5,0-7,.12-10.5,0s-4.85,1.14-4.71,4.65c0.19,4.82-.11,9.67.1,14.49,0.15,3.37-.73,5-4.45,4.54-4.39-.57-10.07,1.9-12.92-1.06-2.61-2.72-.74-8.27-0.77-12.56-0.09-13.66.06-27.33-.11-41,0-3.18.68-4.49,4.09-4.22,4.45,0.36,10.21-1.38,13.06.83,3.05,2.36.89,8.39,1,12.81,0.19,8.41.05,8.41,8.48,8.41,4.5,0,9-.12,13.5,0,2.45,0.09,3.14-.78,3.07-3.14-0.16-5,.06-10-0.1-15-0.08-2.7.65-4,3.61-3.92,3.83,0.16,7.67.18,11.49,0,2.75-.14,3.28,1,3.24,3.52C284.77,305.5,284.86,314.16,284.86,322.83Z" transform="translate(-75.47 -282.08)"/><path class="cls-1" d="M526.65,322.22c0-8,.18-16-0.08-24-0.12-3.73.62-5.15,4.8-5q16.2,0.53,32.44.06c19.72-.6,24.22,11.5,22.09,27.4-1.64,12.22-6.1,15.09-18.58,15.87-6.3.39-12.58,0.67-18.88,0.55-2.42,0-3,.77-3.1,3.12-0.15,3.88,1.93,9.05-1.17,11.3-2.55,1.85-7.36.63-11.18,0.66-6.34.05-6.34,0-6.34-6.53Q526.65,334,526.65,322.22ZM554,323.35c12,0,13.44-1.23,12.61-10.72-0.3-3.38-1.62-5.61-5.49-5.46-2.65.11-5.31,0-8,0-7.76,0-7.76,0-7.76,7.78C545.41,323.36,545.41,323.36,554,323.35Z" transform="translate(-75.47 -282.08)"/><path class="cls-1" d="M488.12,318.47l10.48-21.87c0.76-1.59,1.17-3.33,3.64-3.28,6.27,0.13,12.54,0,19.58,0-6.31,10.82-12.22,21-18.2,31.17-3.17,5.37-6.35,10.75-9.75,16-6.64,10.18-16.47,14.16-28.13,11.7-1.58-.33-2.39-1-2.31-2.59a10,10,0,0,0,0-1c-0.44-9-.44-9,8.33-9.24,5.83-.18,6.79-1.82,4.05-6.66-6.78-12-13.46-24.05-20.26-36-1.41-2.48-1.22-3.67,1.93-3.33,0.16,0,.33,0,0.5,0,5.65,0.08,12.46-1.74,16.63.79s5.22,9.44,7.88,14.32C484.28,311.74,485.11,315.57,488.12,318.47Z" transform="translate(-75.47 -282.08)"/><path class="cls-1" d="M132.47,341.74c0,11.52,0,11.52-11.63,11.48-7.6,0-10.16-2.56-10.17-10.06,0-4.66.1-9.33,0-14-0.07-2.16.57-3,2.78-2.9,3.66,0.14,7.33,0,11,.05,5.33,0.13,8,3,8.07,8.42C132.49,337.08,132.47,339.41,132.47,341.74Z" transform="translate(-75.47 -282.08)"/></svg>